<?xml version="1.0" encoding="utf-8"?>
<!-- Generator: Adobe Illustrator 24.3.0, SVG Export Plug-In . SVG Version: 6.00 Build 0)  -->
<svg version="1.1" id="Layer_1" xmlns="http://www.w3.org/2000/svg" xmlns:xlink="http://www.w3.org/1999/xlink" x="0px" y="0px"
	 viewBox="0 0 2000 2000" style="enable-background:new 0 0 2000 2000;" xml:space="preserve">
<rect width="2000" height="2000"/>
<g>
	<g>
		<g>
			<g>
				<path style="fill:#4A90A4;" d="M633.65,1117.14v-13.13c14.67,0,26.61-11.94,26.61-26.61v-45.46c0-13.28,6.76-25.02,17.02-31.94
					c-10.26-6.92-17.02-18.66-17.02-31.94V922.6c0-14.67-11.94-26.61-26.61-26.61v-13.13c21.91,0,39.74,17.83,39.74,39.74v45.46
					c0,13.99,11.38,25.38,25.38,25.38v13.13c-13.99,0-25.38,11.38-25.38,25.38v45.46C673.38,1099.31,655.56,1117.14,633.65,1117.14z
					"/>
			</g>
			<g>
				<path style="fill:#B87333;" d="M459.62,1117.14c-21.91,0-39.74-17.83-39.74-39.74v-45.46c0-13.99-11.38-25.38-25.38-25.38
					v-13.13c13.99,0,25.38-11.38,25.38-25.38V922.6c0-21.91,17.83-39.74,39.74-39.74v13.13c-14.67,0-26.61,11.94-26.61,26.61v45.46
					c0,13.28-6.76,25.02-17.02,31.94c10.26,6.92,17.02,18.66,17.02,31.94v45.46c0,14.67,11.94,26.61,26.61,26.61V1117.14z"/>
			</g>
			<g>
				<path style="fill:#B87333;" d="M545.35,1140.1c-18.44,0-35.79-7.18-48.83-20.23c-26.92-26.92-26.92-70.73,0-97.66l14.44-14.44
					l9.28,9.28l-14.44,14.44c-21.8,21.8-21.8,57.28,0,79.09c10.56,10.56,24.61,16.38,39.54,16.38c14.94,0,28.98-5.82,39.54-16.38
					c10.56-10.56,16.38-24.61,16.38-39.54c0-14.94-5.82-28.98-16.38-39.54l9.28-9.28c13.04,13.04,20.23,30.38,20.23,48.83
					c0,18.45-7.18,35.79-20.23,48.83C581.13,1132.92,563.79,1140.1,545.35,1140.1z"/>
			</g>
			<g>
				<path style="fill:#4A90A4;" d="M545.35,1100.18c-16.07,0-29.14-13.07-29.14-29.14c0-16.07,13.07-29.14,29.14-29.14
					c16.07,0,29.14,13.07,29.14,29.14C574.48,1087.11,561.41,1100.18,545.35,1100.18z M545.35,1055.04
					c-8.83,0-16.01,7.18-16.01,16.01s7.18,16.01,16.01,16.01c8.83,0,16.01-7.18,16.01-16.01S554.17,1055.04,545.35,1055.04z"/>
			</g>
			<g>
				<path style="fill:#B87333;" d="M584.89,1031.5l-36.97-36.97c-6.21-6.21-9.63-14.47-9.63-23.26v-19.75h13.13v19.75
					c0,5.28,2.06,10.24,5.79,13.98l36.97,36.97L584.89,1031.5z"/>
			</g>
			<g>
				<path style="fill:#4A90A4;" d="M582.66,989.3l-9.28-9.28l11.52-11.52c21.8-21.8,21.8-57.28,0-79.09
					c-10.56-10.56-24.61-16.38-39.54-16.38c-14.94,0-28.98,5.82-39.54,16.38c-21.8,21.8-21.8,57.28,0,79.09l-9.28,9.28
					c-26.92-26.92-26.92-70.73,0-97.66c13.04-13.04,30.38-20.23,48.83-20.23c18.45,0,35.79,7.18,48.83,20.23
					c26.92,26.92,26.92,70.73,0,97.66L582.66,989.3z"/>
			</g>
			<g>
				<path style="fill:#B87333;" d="M545.35,958.09c-16.07,0-29.14-13.07-29.14-29.14c0-16.07,13.07-29.14,29.14-29.14
					c16.07,0,29.14,13.07,29.14,29.14C574.48,945.02,561.41,958.09,545.35,958.09z M545.35,912.95c-8.83,0-16.01,7.18-16.01,16.01
					c0,8.83,7.18,16.01,16.01,16.01c8.83,0,16.01-7.18,16.01-16.01C561.35,920.13,554.17,912.95,545.35,912.95z"/>
			</g>
			<g>
				<path style="fill:#4A90A4;" d="M552.41,1048.48h-13.13v-19.75c0-5.28-2.06-10.24-5.79-13.98l-36.97-36.97l9.28-9.28l36.97,36.97
					c6.21,6.21,9.63,14.47,9.63,23.26V1048.48z"/>
			</g>
		</g>
	</g>
	<g>
		<g>
			<path style="fill:#B87333;" d="M753.08,887.85h12.14v77.75h29.28v12.14h-41.41V887.85z"/>
			<path style="fill:#B87333;" d="M803.6,919.53h12.28v32.81c0,10.11,4.44,15.17,13.33,15.17c3.95,0,7.08-1.35,9.38-4.06
				c2.3-2.7,3.46-6.41,3.46-11.11v-32.81h12.14v34.78c0,7.29-2.38,13.29-7.13,17.99c-4.75,4.7-10.82,7.05-18.2,7.05
				c-7.53,0-13.62-2.35-18.27-7.05c-4.66-4.7-6.98-10.84-6.98-18.41V919.53z"/>
			<path style="fill:#B87333;" d="M908.82,917.06l16.28,38.61l17.2-36.14h10.71l-28.61,59.83l-15.6-37.14l-15.59,36.65l-28.54-59.33
				h10.73l17.29,35.79L908.82,917.06z"/>
			<path style="fill:#B87333;" d="M1008.62,919.53h12.28v58.2h-12.28v-11.57c-5.98,8.8-13.38,13.19-22.22,13.19
				c-7.67,0-14.22-3.01-19.65-9.03c-5.43-6.02-8.15-13.33-8.15-21.94c0-8.14,2.74-15.25,8.22-21.34c5.48-6.09,11.91-9.14,19.3-9.14
				c4.56,0,8.89,1.25,12.98,3.74c4.09,2.49,7.27,5.74,9.53,9.74V919.53z M1010.31,948.8c0-5.31-1.91-9.87-5.72-13.65
				c-3.82-3.79-8.39-5.68-13.71-5.68c-5.18,0-9.71,1.88-13.57,5.64c-3.86,3.76-5.79,8.18-5.79,13.26c0,5.5,1.88,10.18,5.65,14.04
				c3.77,3.86,8.34,5.79,13.71,5.79c5.32,0,9.89-1.92,13.71-5.75S1010.31,954.07,1010.31,948.8z"/>
			<path style="fill:#B87333;" d="M1036.63,886.16h12.28v42.89c3.39-3.9,6.55-6.74,9.49-8.5c2.94-1.76,6.53-2.65,10.76-2.65
				c4.94,0,9.21,1.89,12.81,5.68c3.6,3.79,5.4,8.31,5.4,13.58v40.57h-12.28v-37.11c0-3.67-0.93-6.61-2.79-8.82
				c-1.86-2.21-4.32-3.32-7.37-3.32c-4.42,0-8.2,1.67-11.32,5.01c-3.13,3.34-4.69,7.39-4.69,12.14v32.1h-12.28V886.16z"/>
		</g>
		<g>
			<g>
				<path style="fill:#B87333;" d="M1114.99,933.55l5.6,12.84l5.26-12.15h2.45l-7.71,17.92l-5.6-12.87l-5.6,12.87l-7.72-17.92h2.45
					l5.3,12.29L1114.99,933.55z"/>
				<path style="fill:#B87333;" d="M1130.06,933.89h2.38v8.3c0.66-0.76,1.27-1.3,1.84-1.65c0.57-0.34,1.26-0.51,2.08-0.51
					c0.96,0,1.78,0.37,2.48,1.1c0.7,0.73,1.04,1.61,1.04,2.63v7.85h-2.38v-7.18c0-0.71-0.18-1.28-0.54-1.71
					c-0.36-0.43-0.83-0.64-1.43-0.64c-0.86,0-1.59,0.32-2.19,0.97c-0.6,0.65-0.91,1.43-0.91,2.35v6.21h-2.38V933.89z"/>
				<path style="fill:#B87333;" d="M1154.08,946.44h-9.62c0.21,1.16,0.69,2,1.43,2.53c0.74,0.53,1.55,0.8,2.43,0.8
					c1.35,0,2.48-0.56,3.39-1.68l1.73,1.31c-1.3,1.68-3.05,2.53-5.23,2.53c-1.68,0-3.08-0.57-4.21-1.72
					c-1.13-1.15-1.69-2.57-1.69-4.28c0-1.59,0.57-2.97,1.71-4.14c1.14-1.17,2.54-1.76,4.19-1.76c1.62,0,3.01,0.59,4.17,1.78
					C1153.53,943,1154.1,944.55,1154.08,946.44z M1144.71,944.54h6.88c-0.76-1.55-1.89-2.32-3.39-2.32
					C1146.58,942.22,1145.41,942.99,1144.71,944.54z"/>
				<path style="fill:#B87333;" d="M1159.46,940.35v2.32c0.53-0.93,1.04-1.6,1.55-2.02c0.51-0.41,1.16-0.62,1.97-0.62
					c0.23,0,0.56,0.05,0.98,0.16l-0.72,2.38c-0.46-0.09-0.76-0.14-0.9-0.14c-0.8,0-1.47,0.28-2.01,0.84
					c-0.54,0.56-0.81,1.26-0.81,2.1v6.24h-2.38v-11.27H1159.46z"/>
				<path style="fill:#B87333;" d="M1177.38,946.44h-9.62c0.21,1.16,0.69,2,1.43,2.53c0.74,0.53,1.55,0.8,2.43,0.8
					c1.35,0,2.48-0.56,3.39-1.68l1.73,1.31c-1.3,1.68-3.05,2.53-5.23,2.53c-1.68,0-3.08-0.57-4.21-1.72
					c-1.13-1.15-1.69-2.57-1.69-4.28c0-1.59,0.57-2.97,1.71-4.14c1.14-1.17,2.54-1.76,4.19-1.76c1.62,0,3.01,0.59,4.17,1.78
					C1176.83,943,1177.4,944.55,1177.38,946.44z M1168.01,944.54h6.88c-0.76-1.55-1.89-2.32-3.39-2.32
					C1169.88,942.22,1168.71,942.99,1168.01,944.54z"/>
				<path style="fill:#B87333;" d="M1198.69,936.15l-1.93,1.54c-0.51-0.53-0.97-0.92-1.38-1.18c-0.41-0.26-1.01-0.39-1.79-0.39
					c-0.85,0-1.55,0.19-2.08,0.58c-0.53,0.39-0.8,0.88-0.8,1.49c0,0.53,0.23,0.99,0.7,1.4c0.47,0.4,1.26,0.85,2.37,1.33
					c1.12,0.48,1.99,0.93,2.61,1.34c0.62,0.41,1.13,0.87,1.53,1.37c0.4,0.5,0.7,1.03,0.89,1.58c0.2,0.55,0.29,1.14,0.29,1.76
					c0,1.45-0.53,2.68-1.58,3.7c-1.05,1.02-2.32,1.53-3.82,1.53c-1.46,0-2.74-0.4-3.86-1.19c-1.12-0.8-1.97-1.99-2.57-3.59
					l2.38-0.67c0.86,1.96,2.19,2.94,3.98,2.94c0.86,0,1.58-0.26,2.16-0.78c0.57-0.52,0.86-1.17,0.86-1.96
					c0-0.47-0.15-0.95-0.45-1.42c-0.3-0.48-0.68-0.87-1.12-1.18c-0.45-0.31-1.16-0.66-2.13-1.06c-0.97-0.4-1.72-0.77-2.25-1.1
					c-0.53-0.33-0.98-0.73-1.36-1.19c-0.38-0.46-0.66-0.92-0.84-1.37c-0.18-0.46-0.27-0.94-0.27-1.46c0-1.25,0.5-2.31,1.5-3.19
					c1-0.88,2.22-1.32,3.65-1.32c0.95,0,1.91,0.2,2.88,0.61C1197.23,934.69,1198.04,935.32,1198.69,936.15z"/>
				<path style="fill:#B87333;" d="M1201.38,936.65c0-0.49,0.18-0.92,0.55-1.28c0.36-0.36,0.8-0.54,1.3-0.54
					c0.49,0,0.92,0.18,1.28,0.54c0.36,0.36,0.54,0.78,0.54,1.28c0,0.5-0.18,0.93-0.54,1.28c-0.36,0.35-0.79,0.53-1.28,0.53
					c-0.5,0-0.93-0.18-1.3-0.53C1201.56,937.57,1201.38,937.15,1201.38,936.65z M1202.05,940.35h2.35v11.27h-2.35V940.35z"/>
				<path style="fill:#B87333;" d="M1207.73,951.62v-11.27h2.35v1.73c0.56-0.71,1.09-1.23,1.59-1.56c0.51-0.33,1.09-0.49,1.74-0.49
					c0.86,0,1.53,0.19,2.02,0.56c0.49,0.37,0.9,0.97,1.24,1.79c0.59-0.82,1.17-1.42,1.72-1.79c0.55-0.37,1.2-0.56,1.93-0.56
					c0.9,0,1.67,0.33,2.32,1c0.65,0.67,0.97,1.46,0.97,2.38v8.2h-2.38v-7.58c0-1.25-0.62-1.87-1.85-1.87c-0.7,0-1.3,0.32-1.79,0.96
					s-0.73,1.43-0.73,2.36v6.13h-2.38v-7.27c0-1.47-0.61-2.21-1.82-2.21c-0.72,0-1.33,0.3-1.83,0.9c-0.5,0.6-0.75,1.34-0.75,2.23
					v6.35H1207.73z"/>
				<path style="fill:#B87333;" d="M1229.29,940.35v2.27c1.14-1.72,2.59-2.58,4.36-2.58c1.45,0,2.71,0.58,3.76,1.74
					c1.05,1.16,1.58,2.55,1.58,4.16c0,1.63-0.53,3.04-1.6,4.22c-1.06,1.18-2.32,1.78-3.76,1.78c-0.84,0-1.64-0.22-2.41-0.66
					c-0.77-0.44-1.4-1.07-1.9-1.9v7.53h-2.38v-16.55H1229.29z M1236.5,945.93c0-0.99-0.37-1.86-1.12-2.6
					c-0.75-0.74-1.62-1.11-2.63-1.11c-1.03,0-1.92,0.37-2.67,1.11c-0.75,0.74-1.13,1.61-1.13,2.61c0,1.03,0.37,1.92,1.11,2.68
					c0.74,0.76,1.62,1.13,2.62,1.13c1.05,0,1.94-0.37,2.69-1.12C1236.13,947.88,1236.5,946.98,1236.5,945.93z"/>
				<path style="fill:#B87333;" d="M1242.37,933.89h2.38v17.73h-2.38V933.89z"/>
				<path style="fill:#B87333;" d="M1247.74,936.65c0-0.49,0.18-0.92,0.55-1.28c0.36-0.36,0.8-0.54,1.3-0.54
					c0.49,0,0.92,0.18,1.28,0.54c0.36,0.36,0.54,0.78,0.54,1.28c0,0.5-0.18,0.93-0.54,1.28c-0.36,0.35-0.79,0.53-1.28,0.53
					c-0.5,0-0.93-0.18-1.3-0.53C1247.92,937.57,1247.74,937.15,1247.74,936.65z M1248.41,940.35h2.35v11.27h-2.35V940.35z"/>
				<path style="fill:#B87333;" d="M1262.76,948.17v2.72c-1.21,0.69-2.38,1.04-3.52,1.04c-1.56,0-2.92-0.58-4.09-1.76
					c-1.17-1.17-1.75-2.52-1.75-4.06c0-1.75,0.58-3.2,1.75-4.35c1.17-1.15,2.63-1.73,4.38-1.73c1.05,0,2.13,0.27,3.24,0.82v2.65
					c-1.19-0.76-2.32-1.15-3.39-1.15c-0.98,0-1.84,0.35-2.58,1.04c-0.74,0.69-1.11,1.5-1.11,2.43c0,1.05,0.35,1.93,1.04,2.64
					c0.69,0.71,1.54,1.07,2.54,1.07C1260.29,949.54,1261.45,949.08,1262.76,948.17z"/>
				<path style="fill:#B87333;" d="M1264.63,936.65c0-0.49,0.18-0.92,0.55-1.28c0.36-0.36,0.8-0.54,1.3-0.54
					c0.49,0,0.92,0.18,1.28,0.54c0.36,0.36,0.54,0.78,0.54,1.28c0,0.5-0.18,0.93-0.54,1.28c-0.36,0.35-0.79,0.53-1.28,0.53
					c-0.5,0-0.93-0.18-1.3-0.53C1264.81,937.57,1264.63,937.15,1264.63,936.65z M1265.3,940.35h2.35v11.27h-2.35V940.35z"/>
				<path style="fill:#B87333;" d="M1271.97,937.07h2.38v3.28h2.35v2.17h-2.35v9.1h-2.38v-9.1h-1.87v-2.2h1.87V937.07z"/>
				<path style="fill:#B87333;" d="M1278.06,940.35h2.7l4.09,6.12l2.83-6.12h2.45l-7.61,16.55h-2.48l3.72-8.06L1278.06,940.35z"/>
			</g>
			<g>
				<path style="fill:#B87333;" d="M1117.59,958.47l4.88,18.58h-2.39l-2.95-11.35l-5.08,12.04l-5.1-12.14l-2.99,11.45h-2.38
					l4.88-18.58l5.58,13.29L1117.59,958.47z"/>
				<path style="fill:#B87333;" d="M1136.27,971.74h-9.86c0.22,1.19,0.7,2.05,1.46,2.6c0.76,0.55,1.59,0.82,2.49,0.82
					c1.38,0,2.54-0.57,3.47-1.72l1.78,1.34c-1.34,1.73-3.12,2.59-5.36,2.59c-1.72,0-3.15-0.59-4.31-1.76
					c-1.16-1.18-1.74-2.64-1.74-4.38c0-1.63,0.59-3.05,1.76-4.25c1.17-1.2,2.6-1.8,4.29-1.8c1.66,0,3.09,0.61,4.27,1.83
					C1135.71,968.22,1136.29,969.8,1136.27,971.74z M1126.67,969.79h7.06c-0.78-1.59-1.94-2.38-3.47-2.38
					C1128.58,967.41,1127.39,968.21,1126.67,969.79z"/>
				<path style="fill:#B87333;" d="M1150.61,971.74h-9.86c0.22,1.19,0.7,2.05,1.46,2.6c0.76,0.55,1.59,0.82,2.49,0.82
					c1.38,0,2.54-0.57,3.47-1.72l1.78,1.34c-1.34,1.73-3.12,2.59-5.36,2.59c-1.72,0-3.15-0.59-4.31-1.76
					c-1.16-1.18-1.74-2.64-1.74-4.38c0-1.63,0.59-3.05,1.76-4.25s2.6-1.8,4.29-1.8c1.66,0,3.09,0.61,4.27,1.83
					C1150.05,968.22,1150.63,969.8,1150.61,971.74z M1141.01,969.79h7.06c-0.78-1.59-1.94-2.38-3.47-2.38
					C1142.92,967.41,1141.73,968.21,1141.01,969.79z"/>
				<path style="fill:#B87333;" d="M1154.2,962.13h2.44v3.36h2.41v2.23h-2.41v9.33h-2.44v-9.33h-1.92v-2.25h1.92V962.13z"/>
				<path style="fill:#B87333;" d="M1168.16,966.87l-1.62,1.43c-0.42-0.3-0.78-0.53-1.09-0.68c-0.31-0.15-0.67-0.23-1.09-0.23
					c-0.99,0-1.48,0.36-1.48,1.09c0,0.52,0.63,1.03,1.88,1.52c1.26,0.49,2.16,1.03,2.71,1.62c0.55,0.59,0.83,1.3,0.83,2.13
					c0,0.97-0.4,1.82-1.19,2.54s-1.73,1.08-2.8,1.08c-1.63,0-2.97-0.76-4.02-2.27l1.92-0.92c0.67,0.65,1.37,0.98,2.1,0.98
					c0.5,0,0.95-0.14,1.32-0.41c0.38-0.28,0.57-0.6,0.57-0.96c0-0.64-0.66-1.22-1.99-1.74c-1.32-0.51-2.24-1.03-2.75-1.56
					c-0.51-0.53-0.76-1.18-0.76-1.95c0-0.96,0.36-1.76,1.09-2.4c0.72-0.64,1.63-0.96,2.72-0.96
					C1165.58,965.17,1166.8,965.74,1168.16,966.87z"/>
				<path style="fill:#B87333;" d="M1178.84,959.21h2.41v17.84h-2.41V959.21z"/>
				<path style="fill:#B87333;" d="M1184.48,977.05v-11.55h2.38v1.92c0.7-0.77,1.33-1.34,1.9-1.7s1.2-0.54,1.9-0.54
					c1.05,0,1.94,0.35,2.68,1.04c0.74,0.69,1.11,1.52,1.11,2.49v8.34h-2.44v-7.63c0-0.63-0.2-1.14-0.61-1.55
					c-0.41-0.41-0.92-0.62-1.55-0.62c-0.81,0-1.51,0.34-2.1,1.03c-0.59,0.69-0.88,1.52-0.88,2.49v6.29H1184.48z"/>
				<path style="fill:#B87333;" d="M1197.04,977.05v-11.55h2.38v1.92c0.7-0.77,1.33-1.34,1.9-1.7s1.2-0.54,1.9-0.54
					c1.05,0,1.94,0.35,2.68,1.04c0.74,0.69,1.11,1.52,1.11,2.49v8.34h-2.44v-7.63c0-0.63-0.2-1.14-0.61-1.55
					c-0.41-0.41-0.92-0.62-1.55-0.62c-0.81,0-1.51,0.34-2.1,1.03c-0.59,0.69-0.88,1.52-0.88,2.49v6.29H1197.04z"/>
				<path style="fill:#B87333;" d="M1209.4,971.22c0-1.58,0.62-2.98,1.87-4.21c1.25-1.23,2.68-1.84,4.29-1.84
					c1.66,0,3.11,0.6,4.35,1.81c1.24,1.21,1.86,2.62,1.86,4.23c0,1.63-0.61,3.06-1.83,4.29c-1.22,1.24-2.63,1.86-4.22,1.86
					c-1.71,0-3.19-0.61-4.44-1.83C1210.03,974.31,1209.4,972.87,1209.4,971.22z M1219.43,971.23c0-0.98-0.37-1.84-1.12-2.56
					c-0.75-0.72-1.63-1.09-2.66-1.09c-1.05,0-1.96,0.37-2.72,1.1c-0.76,0.73-1.14,1.61-1.14,2.63c0,0.97,0.38,1.82,1.15,2.55
					c0.77,0.73,1.67,1.09,2.71,1.09c1.01,0,1.89-0.37,2.65-1.12C1219.05,973.09,1219.43,972.22,1219.43,971.23z"/>
				<path style="fill:#B87333;" d="M1223.2,965.49h2.55l3.3,6.68l3.21-6.68h2.57l-5.82,11.99L1223.2,965.49z"/>
				<path style="fill:#B87333;" d="M1246.1,965.49h2.44v11.55h-2.44v-2.3c-1.19,1.75-2.66,2.62-4.41,2.62c-1.52,0-2.82-0.6-3.9-1.79
					s-1.62-2.65-1.62-4.35c0-1.61,0.54-3.03,1.63-4.23s2.36-1.81,3.83-1.81c0.91,0,1.76,0.25,2.58,0.74
					c0.81,0.49,1.44,1.14,1.89,1.93V965.49z M1246.44,971.31c0-1.06-0.38-1.96-1.14-2.71c-0.76-0.75-1.66-1.13-2.72-1.13
					c-1.03,0-1.93,0.37-2.69,1.12c-0.77,0.75-1.15,1.62-1.15,2.63c0,1.09,0.38,2.02,1.12,2.79c0.75,0.77,1.66,1.15,2.72,1.15
					c1.06,0,1.96-0.38,2.72-1.14C1246.06,973.25,1246.44,972.35,1246.44,971.31z"/>
				<path style="fill:#B87333;" d="M1252.98,962.13h2.44v3.36h2.41v2.23h-2.41v9.33h-2.44v-9.33h-1.92v-2.25h1.92V962.13z"/>
				<path style="fill:#B87333;" d="M1259.52,961.7c0-0.5,0.19-0.94,0.56-1.31c0.37-0.37,0.82-0.55,1.33-0.55
					c0.5,0,0.94,0.19,1.31,0.55c0.37,0.37,0.55,0.8,0.55,1.31c0,0.51-0.18,0.95-0.55,1.32c-0.37,0.36-0.81,0.55-1.31,0.55
					c-0.51,0-0.96-0.18-1.33-0.55C1259.7,962.65,1259.52,962.21,1259.52,961.7z M1260.2,965.49h2.41v11.55h-2.41V965.49z"/>
				<path style="fill:#B87333;" d="M1265.61,971.22c0-1.58,0.62-2.98,1.87-4.21c1.25-1.23,2.68-1.84,4.29-1.84
					c1.66,0,3.11,0.6,4.35,1.81c1.24,1.21,1.86,2.62,1.86,4.23c0,1.63-0.61,3.06-1.83,4.29c-1.22,1.24-2.63,1.86-4.22,1.86
					c-1.71,0-3.19-0.61-4.44-1.83C1266.23,974.31,1265.61,972.87,1265.61,971.22z M1275.63,971.23c0-0.98-0.37-1.84-1.12-2.56
					c-0.75-0.72-1.63-1.09-2.66-1.09c-1.05,0-1.96,0.37-2.72,1.1c-0.76,0.73-1.14,1.61-1.14,2.63c0,0.97,0.38,1.82,1.15,2.55
					c0.77,0.73,1.67,1.09,2.71,1.09c1.01,0,1.89-0.37,2.65-1.12C1275.25,973.09,1275.63,972.22,1275.63,971.23z"/>
				<path style="fill:#B87333;" d="M1280.14,977.05v-11.55h2.38v1.92c0.7-0.77,1.33-1.34,1.9-1.7c0.57-0.36,1.2-0.54,1.9-0.54
					c1.05,0,1.94,0.35,2.68,1.04c0.74,0.69,1.11,1.52,1.11,2.49v8.34h-2.44v-7.63c0-0.63-0.2-1.14-0.61-1.55
					c-0.41-0.41-0.92-0.62-1.55-0.62c-0.81,0-1.51,0.34-2.1,1.03c-0.59,0.69-0.88,1.52-0.88,2.49v6.29H1280.14z"/>
			</g>
		</g>
		<g>
			<path style="fill:#4A90A4;" d="M753.08,996.66h54.96v12.28h-21.45v77.61h-12.14v-77.61h-21.38V996.66z"/>
			<path style="fill:#4A90A4;" d="M867.23,1059.8h-49.67c1.08,5.97,3.54,10.34,7.37,13.09s8.01,4.13,12.52,4.13
				c6.96,0,12.79-2.89,17.5-8.68l8.96,6.77c-6.73,8.7-15.73,13.05-27.02,13.05c-8.65,0-15.9-2.96-21.73-8.89
				c-5.83-5.93-8.75-13.29-8.75-22.08c0-8.23,2.95-15.37,8.86-21.41c5.9-6.04,13.11-9.07,21.62-9.07c8.37,0,15.54,3.07,21.52,9.21
				C864.39,1042.06,867.33,1050.02,867.23,1059.8z M818.83,1050h35.56c-3.95-8-9.78-11.99-17.5-11.99
				C828.48,1038,822.45,1042,818.83,1050z"/>
			<path style="fill:#4A90A4;" d="M925.01,1068.76v14.04c-6.26,3.58-12.32,5.36-18.2,5.36c-8.04,0-15.09-3.02-21.13-9.07
				c-6.04-6.04-9.07-13.04-9.07-20.99c0-9.03,3.01-16.52,9.03-22.47c6.02-5.95,13.57-8.92,22.65-8.92c5.41,0,10.98,1.41,16.72,4.23
				v13.69c-6.16-3.95-11.99-5.93-17.5-5.93c-5.08,0-9.52,1.79-13.33,5.36c-3.81,3.57-5.71,7.76-5.71,12.56
				c0,5.41,1.79,9.96,5.36,13.65c3.57,3.69,7.95,5.54,13.12,5.54C912.22,1075.82,918.24,1073.47,925.01,1068.76z"/>
			<path style="fill:#4A90A4;" d="M940.04,994.97h12.28v42.89c3.39-3.9,6.55-6.74,9.49-8.5c2.94-1.76,6.53-2.65,10.76-2.65
				c4.94,0,9.21,1.89,12.8,5.68c3.6,3.79,5.4,8.31,5.4,13.58v40.57h-12.28v-37.11c0-3.67-0.93-6.61-2.79-8.82
				c-1.86-2.21-4.32-3.32-7.37-3.32c-4.42,0-8.2,1.67-11.32,5.01c-3.13,3.34-4.69,7.39-4.69,12.14v32.1h-12.28V994.97z"/>
			<path style="fill:#4A90A4;" d="M1003.75,1086.54v-58.2h11.99v9.67c3.53-3.9,6.73-6.76,9.59-8.57c2.87-1.81,6.07-2.72,9.59-2.72
				c5.27,0,9.77,1.74,13.51,5.22c3.74,3.48,5.61,7.67,5.61,12.56v42.05h-12.28v-38.45c0-3.15-1.02-5.76-3.07-7.83
				c-2.05-2.07-4.65-3.1-7.8-3.1c-4.09,0-7.62,1.73-10.58,5.19s-4.44,7.63-4.44,12.52v31.68H1003.75z"/>
			<path style="fill:#4A90A4;" d="M1066.05,1057.19c0-7.95,3.14-15.02,9.42-21.2c6.28-6.18,13.48-9.28,21.62-9.28
				c8.37,0,15.69,3.05,21.94,9.14c6.26,6.09,9.38,13.2,9.38,21.34c0,8.18-3.07,15.39-9.21,21.62c-6.14,6.23-13.23,9.35-21.27,9.35
				c-8.61,0-16.07-3.08-22.4-9.24C1069.21,1072.76,1066.05,1065.52,1066.05,1057.19z M1116.56,1057.23c0-4.95-1.88-9.25-5.64-12.9
				c-3.76-3.65-8.23-5.48-13.4-5.48c-5.32,0-9.89,1.85-13.72,5.55c-3.83,3.7-5.75,8.12-5.75,13.25c0,4.9,1.94,9.19,5.82,12.87
				c3.88,3.68,8.43,5.51,13.65,5.51c5.08,0,9.52-1.88,13.33-5.65C1114.66,1066.61,1116.56,1062.22,1116.56,1057.23z"/>
			<path style="fill:#4A90A4;" d="M1143.23,994.97h12.28v91.58h-12.28V994.97z"/>
			<path style="fill:#4A90A4;" d="M1169.97,1057.19c0-7.95,3.14-15.02,9.42-21.2c6.28-6.18,13.48-9.28,21.62-9.28
				c8.37,0,15.69,3.05,21.94,9.14c6.26,6.09,9.38,13.2,9.38,21.34c0,8.18-3.07,15.39-9.21,21.62c-6.14,6.23-13.23,9.35-21.27,9.35
				c-8.61,0-16.07-3.08-22.4-9.24C1173.13,1072.76,1169.97,1065.52,1169.97,1057.19z M1220.48,1057.23c0-4.95-1.88-9.25-5.64-12.9
				c-3.76-3.65-8.23-5.48-13.4-5.48c-5.32,0-9.89,1.85-13.72,5.55c-3.83,3.7-5.75,8.12-5.75,13.25c0,4.9,1.94,9.19,5.82,12.87
				c3.88,3.68,8.43,5.51,13.65,5.51c5.08,0,9.52-1.88,13.33-5.65C1218.58,1066.61,1220.48,1062.22,1220.48,1057.23z"/>
			<path style="fill:#4A90A4;" d="M1293.92,1028.34h11.99v55.88c0,8.23-2.83,15.23-8.5,20.99c-5.67,5.76-12.52,8.64-20.56,8.64
				c-6.12,0-11.74-1.66-16.86-4.97c-5.13-3.32-8.89-8.36-11.29-15.13h12.7c3.81,6.3,9.1,9.45,15.87,9.45
				c4.61,0,8.54-1.66,11.78-4.97c3.25-3.32,4.87-7.3,4.87-11.96v-11.01c-5.93,8.61-13.41,12.91-22.44,12.91
				c-7.43,0-13.91-3.07-19.44-9.21c-5.53-6.14-8.29-13.39-8.29-21.76c0-8.37,2.69-15.54,8.08-21.52c5.39-5.97,11.79-8.96,19.23-8.96
				c9.59,0,17.22,4.63,22.86,13.9V1028.34z M1295.62,1057.33c0-5.45-1.89-10.02-5.68-13.69c-3.79-3.67-8.48-5.5-14.07-5.5
				c-5.13,0-9.64,1.91-13.55,5.71c-3.91,3.81-5.86,8.21-5.86,13.19c0,5.41,1.93,10.07,5.79,13.97c3.86,3.91,8.44,5.86,13.76,5.86
				c5.41,0,10.03-1.91,13.86-5.71C1293.7,1067.35,1295.62,1062.74,1295.62,1057.33z"/>
			<path style="fill:#4A90A4;" d="M1322.92,1009.22c0-2.54,0.94-4.74,2.82-6.6c1.88-1.86,4.11-2.79,6.7-2.79
				c2.54,0,4.74,0.93,6.6,2.79c1.86,1.86,2.79,4.06,2.79,6.6c0,2.59-0.93,4.8-2.79,6.63c-1.86,1.83-4.06,2.75-6.6,2.75
				c-2.59,0-4.82-0.92-6.7-2.75C1323.86,1014.01,1322.92,1011.81,1322.92,1009.22z M1326.38,1028.34h12.14v58.2h-12.14V1028.34z"/>
			<path style="fill:#4A90A4;" d="M1414.99,1059.8h-49.67c1.08,5.97,3.54,10.34,7.37,13.09c3.83,2.75,8.01,4.13,12.52,4.13
				c6.96,0,12.79-2.89,17.5-8.68l8.96,6.77c-6.73,8.7-15.73,13.05-27.02,13.05c-8.65,0-15.9-2.96-21.73-8.89
				c-5.83-5.93-8.75-13.29-8.75-22.08c0-8.23,2.95-15.37,8.86-21.41c5.9-6.04,13.11-9.07,21.62-9.07c8.37,0,15.54,3.07,21.52,9.21
				C1412.14,1042.06,1415.08,1050.02,1414.99,1059.8z M1366.59,1050h35.56c-3.95-8-9.78-11.99-17.5-11.99
				C1376.23,1038,1370.21,1042,1366.59,1050z"/>
			<path style="fill:#4A90A4;" d="M1464.23,1035.25l-8.18,7.2c-2.12-1.51-3.95-2.65-5.5-3.42c-1.55-0.78-3.39-1.16-5.5-1.16
				c-4.99,0-7.48,1.83-7.48,5.5c0,2.64,3.16,5.19,9.49,7.67c6.32,2.48,10.88,5.2,13.65,8.16c2.77,2.96,4.16,6.53,4.16,10.71
				c0,4.89-2,9.15-6,12.79c-4,3.64-8.7,5.46-14.11,5.46c-8.23,0-14.98-3.81-20.25-11.43l9.67-4.66c3.39,3.29,6.91,4.94,10.58,4.94
				c2.54,0,4.76-0.69,6.67-2.08c1.91-1.39,2.86-3,2.86-4.83c0-3.24-3.34-6.16-10.02-8.76c-6.68-2.59-11.3-5.22-13.86-7.87
				c-2.56-2.66-3.84-5.93-3.84-9.84c0-4.84,1.82-8.87,5.47-12.09c3.65-3.22,8.22-4.83,13.72-4.83
				C1451.25,1026.71,1457.41,1029.56,1464.23,1035.25z"/>
			<path style="fill:#4A90A4;" d="M1496.81,1032.48h7.3v46.77h17.61v7.3h-24.91V1032.48z"/>
			<path style="fill:#4A90A4;" d="M1530.26,1032.48h7.3v46.77h17.61v7.3h-24.91V1032.48z"/>
			<path style="fill:#4A90A4;" d="M1605.49,1034.34v8.36c-5.83-2.86-11.19-4.29-16.08-4.29c-6.28,0-11.57,2.03-15.87,6.08
				c-4.3,4.06-6.45,9.04-6.45,14.94c0,6.02,2.2,11.04,6.6,15.07s9.91,6.04,16.53,6.04c4.81,0,9.9-1.51,15.28-4.54v8.44
				c-4.89,2.6-10.2,3.9-15.91,3.9c-8.37,0-15.53-2.83-21.47-8.5c-5.94-5.67-8.91-12.5-8.91-20.5c0-7.86,2.92-14.59,8.76-20.18
				c5.84-5.6,12.88-8.4,21.11-8.4C1594.36,1030.78,1599.84,1031.97,1605.49,1034.34z"/>
		</g>
	</g>
</g>
</svg>
